<?xml version="1.0" encoding="utf-8"?>
<!-- Generator: Adobe Illustrator 19.0.0, SVG Export Plug-In . SVG Version: 6.00 Build 0)  -->
<svg version="1.1" id="layer" xmlns="http://www.w3.org/2000/svg" xmlns:xlink="http://www.w3.org/1999/xlink" x="0px" y="0px"
	 viewBox="-153 -46 652 652" style="enable-background:new -153 -46 652 652;" xml:space="preserve">
<style type="text/css">
	.st0{fill:#F6861F;}
	.st1{fill:#004356;}
</style>
<polyline class="st0" points="-85.7,254.7 -85.7,285.5 18.5,305.8 18.5,275 -85.7,254.7 "/>
<path class="st1" d="M-126.8,277.5l31,6v-65.5h57.6v-31h-88.7V277.5 M-95.8,326.7h-31v46.8h88.7v-31.3h-57.6V326.7z M-29,187v31
	h57.4v15.5h31.3V187H-29z M28.4,342l-57.4,0.2v31.3h88.7V283l-31.3-6.1V342z M158.8,262.1h-29.3c-3.4,0-4.1,0.2-4.1,3.2v1.2
	c0,1.8,1,2.2,3.5,2.7c0,0,18.6,3.4,20.7,3.8c11.1,2.1,13.3,6.4,13.3,15.5v7.8c0,11.5-5.2,17-21.5,16.9c-12.5,0-32.7-1.5-32.7-1.5
	l0.2-13.3h30.4c5.2,0,6.9-0.9,6.9-4.8v-2.8c0-1.4-0.3-2.7-2.4-3.1c-2.2-0.5-16.2-3-17.7-3.2c-12.1-2.1-17.8-3-17.8-14.6V264
	c0-11.6,5.5-16.7,21.9-16.7c12.5,0,28.8,1.5,28.8,1.5L158.8,262.1 M212.5,298h-23.1l-4.2,14.7h-18.3c0,0,18.5-58.4,19.8-62.3
	c0.7-2.5,1-2.6,4.3-2.6h19.9c3.3,0,3.6,0.1,4.3,2.6c1.2,3.9,19.7,62.3,19.7,62.3h-18.2L212.5,298 M193,284h15.8l-6.5-23.2h-2.7
	L193,284z M242.7,247.9h16.7v64.9h-16.7V247.9z M288.6,312.8h-16.7v-64.9h37.4c12.5,0,18.8,7.1,18.8,16.8V277
	c0,9.6-6.4,16.9-18.8,16.9h-20.7V312.8 M311.4,273.6v-5.6c0-4.2-1.8-6.5-6.6-6.5h-16.2v18.5h16.2
	C309.6,280.1,311.4,277.7,311.4,273.6 M338.3,247.9h49v13.7H355v11.3h27.4V287H355v11.2h32.2v14.5h-48.9V247.9 M450.9,248.7
	c0,0,0.2-0.8,1.1-0.8h21.1v64.9h-16.7v-35.2h-0.9l-11.4,34c0,0-0.3,1.2-1.4,1.2h-13.4c-1.2,0-1.5-1.2-1.5-1.2l-11.4-34h-0.9v35.2
	H399v-64.9h21.1c0.9,0,1.1,0.8,1.1,0.8l14.5,38.6h0.7L450.9,248.7"/>
</svg>
