<svg xmlns="http://www.w3.org/2000/svg" height="800" width="1200" viewBox="-139.87095 -303.31025 1212.2149 1819.8615"><path d="M506.223 550.48a1493523.663 1493523.663 0 01-260.312-50.576l-39.688-7.724v-77.34c0-42.537.422-77.346.938-77.353 2.627-.036 518.576 100.499 519.384 101.205.521.455.802 35.436.625 77.734l-.322 76.908-220.625-42.853z" fill="#f08a04"/><path d="M29.348 1212.397c-10.312-.603-21.202-1.433-24.2-1.844-5.297-.726-5.427-.853-4.687-4.556.42-2.095.762-9.927.762-17.403V1175h42.313c28.069 0 43.67-.472 46.34-1.403 4.824-1.682 6.347-5.107 6.347-14.275 0-5.653-.462-7.057-2.812-8.547-1.547-.98-17.157-4.355-34.688-7.5-37.857-6.79-43.595-8.367-49.589-13.63C1.17 1122.65.032 1118.383 0 1095.359c-.033-24.733 1.716-31.03 10.856-39.075 8.716-7.672 18.188-10.219 40.835-10.979 17.047-.571 64.571 1.365 74.22 3.025l4.062.698v34.722H89.45c-22.287 0-41.412.341-42.5.759-1.46.56-1.977 2.498-1.977 7.415 0 5.703.383 6.78 2.673 7.506 1.47.466 17.194 3.545 34.943 6.842 34.577 6.421 42.544 9.033 49.543 16.24 6.51 6.704 7.216 10.434 7.216 38.113v25l-3.75 7.5c-4.359 8.717-11.231 14.504-20.993 17.675-5.247 1.705-12.315 2.17-36.507 2.404-16.5.16-38.437-.204-48.75-.807zm119.73-1.518c.786-2.049 46.805-146.946 49.19-154.883 3.05-10.146 1.469-9.746 38.516-9.746 25.257 0 33.192.372 34.216 1.606.733.883 12.528 37.024 26.21 80.313 13.683 43.288 25.287 79.984 25.788 81.546l.91 2.84-24.013-.34-24.013-.34-5.284-18.125-5.284-18.125-28.792-.335-28.792-.335-2.556 8.46c-1.405 4.653-3.85 13.1-5.432 18.773l-2.876 10.312h-24.205c-19.32 0-24.08-.327-23.583-1.621zm105.857-73.691c-.021-.86-3.597-13.938-7.947-29.063-7.354-25.57-8.11-27.5-10.784-27.5-2.68 0-3.41 1.904-10.788 28.125-4.352 15.469-7.92 28.547-7.928 29.063-.009.515 8.423.937 18.735.937 14.187 0 18.74-.38 18.712-1.563zm87.538-7.813v-83.125h43.75v166.25h-43.75zm73.75-.06v-83.185l55.938.372c54.924.366 56.065.425 62.996 3.227 9.478 3.832 17.654 11.29 21.933 20.003 3.45 7.024 3.515 7.573 3.911 33.074.464 29.841-.505 35.17-8.236 45.319-5.73 7.522-17.212 13.847-28.417 15.652-4.125.665-20.016 1.212-35.312 1.216l-27.813.01v47.5h-45v-83.185zm93.082-2.342c6.88-2.874 8.452-7.483 7.962-23.342-.398-12.911-.59-13.751-3.882-17.043l-3.463-3.463-24.35-.387-24.349-.387v46.399h21.915c16.113 0 23.041-.47 26.167-1.777zm76.918 2.402v-83.125h126.25v36.25h-82.5v27.5h70v37.5h-70v27.5h82.5v37.5h-126.25zm155 0v-83.125h56.186l1.715 3.437c.944 1.89 9.536 24.38 19.095 49.975 9.558 25.595 17.697 46.548 18.087 46.562.389.014 9.108-22.334 19.375-49.662l18.667-49.687 28.438-.336 28.437-.336V1212.5h-43.75l-.094-45.313-.093-45.312-15.22 45-15.218 45h-41.041l-15.105-45-15.104-45-.328 45.312-.328 45.313h-43.719v-83.125zm-740-315.625v-117.5h156.25v77.5h287.5v157.5H1.223zm487.5 38.75v-78.75h58.544c32.199 0 96.605-.374 143.125-.83l84.581-.83V609.648c0-154.087.113-162.412 2.188-161.876 1.203.31 36.636 7.267 78.741 15.458l76.555 14.894.008 226.563.008 226.562h-443.75V852.5zM118.098 475.052c-19.937-3.952-54.39-10.71-76.562-15.017l-40.313-7.83V0h443.75v155h-287.5v163.75c0 130.236-.32 163.723-1.562 163.62-.86-.073-17.875-3.365-37.813-7.318zM774.973 193.75V155h-286.25V0h443.75v232.5h-157.5z" fill="#224c5a"/></svg>